<svg width="46" height="46" viewBox="0 0 46 46" fill="none" xmlns="http://www.w3.org/2000/svg">
<rect x="3" y="3" width="40" height="40" rx="20" fill="#F0F5FF"/>
<rect x="3" y="3" width="40" height="40" rx="20" stroke="#F0F5FF" stroke-opacity="0.2" stroke-width="6"/>
<path d="M23.8334 14.6667L16.4112 23.5732C16.1206 23.922 15.9752 24.0964 15.973 24.2437C15.9711 24.3718 16.0281 24.4936 16.1277 24.5741C16.2423 24.6667 16.4693 24.6667 16.9234 24.6667H23L22.1667 31.3333L29.5888 22.4268C29.8795 22.078 30.0248 21.9036 30.027 21.7563C30.029 21.6282 29.9719 21.5064 29.8723 21.4259C29.7577 21.3333 29.5307 21.3333 29.0767 21.3333H23L23.8334 14.6667Z" stroke="#115CEF" stroke-width="1.66667" stroke-linecap="round" stroke-linejoin="round"/>
</svg>
