<svg width="70" height="70" viewBox="0 0 70 70" fill="none" xmlns="http://www.w3.org/2000/svg">
<g filter="url(#filter0_b_45_23)">
<circle cx="35" cy="35" r="35" fill="#115CEF"/>
</g>
<path d="M37 25.2695V29.4001C37 29.9601 37 30.2401 37.109 30.4541C37.2049 30.6422 37.3578 30.7952 37.546 30.8911C37.7599 31.0001 38.0399 31.0001 38.6 31.0001H42.7305M32 39L34 41L38.5 36.5M37 25H31.8C30.1198 25 29.2798 25 28.638 25.327C28.0735 25.6146 27.6146 26.0735 27.327 26.638C27 27.2798 27 28.1198 27 29.8V40.2C27 41.8802 27 42.7202 27.327 43.362C27.6146 43.9265 28.0735 44.3854 28.638 44.673C29.2798 45 30.1198 45 31.8 45H38.2C39.8802 45 40.7202 45 41.362 44.673C41.9265 44.3854 42.3854 43.9265 42.673 43.362C43 42.7202 43 41.8802 43 40.2V31L37 25Z" stroke="white" stroke-width="2" stroke-linecap="round" stroke-linejoin="round"/>
<defs>
<filter id="filter0_b_45_23" x="-10" y="-10" width="90" height="90" filterUnits="userSpaceOnUse" color-interpolation-filters="sRGB">
<feFlood flood-opacity="0" result="BackgroundImageFix"/>
<feGaussianBlur in="BackgroundImageFix" stdDeviation="5"/>
<feComposite in2="SourceAlpha" operator="in" result="effect1_backgroundBlur_45_23"/>
<feBlend mode="normal" in="SourceGraphic" in2="effect1_backgroundBlur_45_23" result="shape"/>
</filter>
</defs>
</svg>
