<svg width="70" height="70" viewBox="0 0 70 70" fill="none" xmlns="http://www.w3.org/2000/svg">
<g clip-path="url(#clip0_40_13)">
<path d="M35 70C54.33 70 70 54.33 70 35C70 15.67 54.33 0 35 0C15.67 0 0 15.67 0 35C0 54.33 15.67 70 35 70Z" fill="#115CEF"/>
<path d="M41.3237 39.4012C41.9084 39.0019 42.5943 38.7763 43.3019 38.7505C44.0095 38.7248 44.7099 38.8998 45.3222 39.2555C45.9344 39.6112 46.4335 40.133 46.7616 40.7605C47.0897 41.3879 47.2334 42.0955 47.1762 42.8012C45.6764 43.3254 44.0834 43.5294 42.4999 43.4C42.4951 41.9833 42.0871 40.596 41.3237 39.4025C40.6461 38.3397 39.7113 37.465 38.606 36.8594C37.5006 36.2537 36.2603 35.9366 34.9999 35.9375C33.7397 35.9369 32.4997 36.254 31.3946 36.8597C30.2895 37.4653 29.3549 38.3399 28.6774 39.4025M28.6774 39.4025C28.0927 39.0036 27.407 38.7783 26.6996 38.7527C25.9922 38.7271 25.292 38.9022 24.6799 39.2579C24.0679 39.6135 23.569 40.1351 23.241 40.7624C22.9129 41.3896 22.7691 42.0969 22.8262 42.8025C24.3248 43.3296 25.917 43.5328 27.4999 43.3987M28.6774 39.4025C27.9145 40.5961 27.5044 41.9822 27.4999 43.3987M42.4987 43.3987L42.4999 43.4375C42.4999 43.7187 42.4849 43.9963 42.4537 44.27C40.1854 45.5714 37.615 46.2542 34.9999 46.25C32.2874 46.25 29.7412 45.53 27.5462 44.27C27.514 43.9807 27.4986 43.6898 27.4999 43.3987M38.7499 28.4375C38.7499 29.4321 38.3548 30.3859 37.6516 31.0892C36.9483 31.7924 35.9945 32.1875 34.9999 32.1875C34.0054 32.1875 33.0515 31.7924 32.3483 31.0892C31.645 30.3859 31.2499 29.4321 31.2499 28.4375C31.2499 27.4429 31.645 26.4891 32.3483 25.7858C33.0515 25.0826 34.0054 24.6875 34.9999 24.6875C35.9945 24.6875 36.9483 25.0826 37.6516 25.7858C38.3548 26.4891 38.7499 27.4429 38.7499 28.4375ZM46.2499 32.1875C46.2499 32.5568 46.1772 32.9226 46.0358 33.2638C45.8945 33.605 45.6873 33.9151 45.4262 34.1762C45.165 34.4374 44.8549 34.6446 44.5137 34.7859C44.1725 34.9273 43.8068 35 43.4374 35C43.0681 35 42.7024 34.9273 42.3611 34.7859C42.0199 34.6446 41.7098 34.4374 41.4487 34.1762C41.1875 33.9151 40.9803 33.605 40.839 33.2638C40.6977 32.9226 40.6249 32.5568 40.6249 32.1875C40.6249 31.4416 40.9212 30.7262 41.4487 30.1988C41.9761 29.6713 42.6915 29.375 43.4374 29.375C44.1833 29.375 44.8987 29.6713 45.4262 30.1988C45.9536 30.7262 46.2499 31.4416 46.2499 32.1875ZM29.3749 32.1875C29.3749 32.5568 29.3022 32.9226 29.1608 33.2638C29.0195 33.605 28.8123 33.9151 28.5512 34.1762C28.29 34.4374 27.9799 34.6446 27.6387 34.7859C27.2975 34.9273 26.9318 35 26.5624 35C26.1931 35 25.8274 34.9273 25.4861 34.7859C25.1449 34.6446 24.8348 34.4374 24.5737 34.1762C24.3125 33.9151 24.1054 33.605 23.964 33.2638C23.8227 32.9226 23.7499 32.5568 23.7499 32.1875C23.7499 31.4416 24.0462 30.7262 24.5737 30.1988C25.1011 29.6713 25.8165 29.375 26.5624 29.375C27.3083 29.375 28.0237 29.6713 28.5512 30.1988C29.0786 30.7262 29.3749 31.4416 29.3749 32.1875Z" stroke="white" stroke-width="1.5" stroke-linecap="round" stroke-linejoin="round"/>
</g>
<defs>
<clipPath id="clip0_40_13">
<rect width="70" height="70" fill="white"/>
</clipPath>
</defs>
</svg>
