<svg width="70" height="70" viewBox="0 0 70 70" fill="none" xmlns="http://www.w3.org/2000/svg">
<g filter="url(#filter0_b_45_17)">
<circle cx="35" cy="35" r="35" fill="#115CEF"/>
</g>
<path d="M34.5 26.1667C33.0618 26.1667 31.8958 27.3326 31.8958 28.7709C31.8958 30.2091 33.0618 31.375 34.5 31.375C35.9382 31.375 37.1042 30.2091 37.1042 28.7709C37.1042 27.3326 35.9382 26.1667 34.5 26.1667ZM34.5 26.1667V24.0834M43.875 37.5599C41.5845 40.155 38.2334 41.7917 34.5 41.7917C30.7666 41.7917 27.4155 40.155 25.125 37.5599M33.1925 31.0226L25.125 44.9167M35.8075 31.0226L43.875 44.9167" stroke="white" stroke-width="2" stroke-linecap="round" stroke-linejoin="round"/>
<defs>
<filter id="filter0_b_45_17" x="-10" y="-10" width="90" height="90" filterUnits="userSpaceOnUse" color-interpolation-filters="sRGB">
<feFlood flood-opacity="0" result="BackgroundImageFix"/>
<feGaussianBlur in="BackgroundImageFix" stdDeviation="5"/>
<feComposite in2="SourceAlpha" operator="in" result="effect1_backgroundBlur_45_17"/>
<feBlend mode="normal" in="SourceGraphic" in2="effect1_backgroundBlur_45_17" result="shape"/>
</filter>
</defs>
</svg>
