<svg width="70" height="70" viewBox="0 0 70 70" fill="none" xmlns="http://www.w3.org/2000/svg">
<g filter="url(#filter0_b_16_6)">
<circle cx="35" cy="35" r="35" fill="#115CEF"/>
</g>
<path d="M34.8333 38.0833C36.6283 38.0833 38.0833 36.6283 38.0833 34.8333C38.0833 33.0384 36.6283 31.5833 34.8333 31.5833C33.0384 31.5833 31.5833 33.0384 31.5833 34.8333C31.5833 36.6283 33.0384 38.0833 34.8333 38.0833Z" stroke="white" stroke-width="2" stroke-linecap="round" stroke-linejoin="round"/>
<path d="M42.1212 37.7879C41.9901 38.0849 41.951 38.4144 42.0089 38.7339C42.0669 39.0534 42.2192 39.3482 42.4462 39.5803L42.5053 39.6394C42.6884 39.8223 42.8337 40.0396 42.9328 40.2787C43.032 40.5178 43.083 40.7741 43.083 41.033C43.083 41.2918 43.032 41.5481 42.9328 41.7872C42.8337 42.0264 42.6884 42.2436 42.5053 42.4265C42.3224 42.6097 42.1051 42.7549 41.866 42.8541C41.6269 42.9532 41.3706 43.0042 41.1117 43.0042C40.8529 43.0042 40.5966 42.9532 40.3575 42.8541C40.1184 42.7549 39.9011 42.6097 39.7182 42.4265L39.6591 42.3674C39.427 42.1404 39.1322 41.9881 38.8127 41.9301C38.4932 41.8722 38.1637 41.9113 37.8667 42.0424C37.5754 42.1673 37.327 42.3746 37.152 42.6388C36.977 42.903 36.8831 43.2126 36.8818 43.5295V43.697C36.8818 44.2194 36.6743 44.7204 36.3049 45.0898C35.9355 45.4591 35.4345 45.6667 34.9121 45.6667C34.3897 45.6667 33.8887 45.4591 33.5193 45.0898C33.1499 44.7204 32.9424 44.2194 32.9424 43.697V43.6083C32.9348 43.2824 32.8293 42.9662 32.6396 42.701C32.4499 42.4358 32.1848 42.2338 31.8788 42.1212C31.5817 41.9901 31.2522 41.951 30.9328 42.0089C30.6133 42.0669 30.3185 42.2192 30.0864 42.4462L30.0273 42.5053C29.8443 42.6884 29.6271 42.8337 29.388 42.9328C29.1489 43.032 28.8926 43.083 28.6337 43.083C28.3749 43.083 28.1186 43.032 27.8794 42.9328C27.6403 42.8337 27.4231 42.6884 27.2402 42.5053C27.057 42.3224 26.9117 42.1051 26.8126 41.866C26.7135 41.6269 26.6625 41.3706 26.6625 41.1117C26.6625 40.8529 26.7135 40.5966 26.8126 40.3575C26.9117 40.1184 27.057 39.9011 27.2402 39.7182L27.2992 39.6591C27.5263 39.427 27.6786 39.1322 27.7365 38.8127C27.7944 38.4932 27.7553 38.1637 27.6242 37.8667C27.4994 37.5754 27.2921 37.327 27.0279 37.152C26.7637 36.977 26.454 36.8831 26.1371 36.8818H25.9697C25.4473 36.8818 24.9463 36.6743 24.5769 36.3049C24.2075 35.9355 24 35.4345 24 34.9121C24 34.3897 24.2075 33.8887 24.5769 33.5193C24.9463 33.1499 25.4473 32.9424 25.9697 32.9424H26.0583C26.3843 32.9348 26.7005 32.8293 26.9657 32.6396C27.2309 32.4499 27.4329 32.1848 27.5455 31.8788C27.6766 31.5817 27.7157 31.2522 27.6577 30.9328C27.5998 30.6133 27.4475 30.3185 27.2205 30.0864L27.1614 30.0273C26.9782 29.8443 26.8329 29.6271 26.7338 29.388C26.6347 29.1489 26.5837 28.8926 26.5837 28.6337C26.5837 28.3749 26.6347 28.1186 26.7338 27.8794C26.8329 27.6403 26.9782 27.4231 27.1614 27.2402C27.3443 27.057 27.5615 26.9117 27.8006 26.8126C28.0398 26.7135 28.2961 26.6625 28.5549 26.6625C28.8138 26.6625 29.0701 26.7135 29.3092 26.8126C29.5483 26.9117 29.7656 27.057 29.9485 27.2402L30.0076 27.2992C30.2397 27.5263 30.5345 27.6786 30.854 27.7365C31.1734 27.7944 31.503 27.7553 31.8 27.6242H31.8788C32.1701 27.4994 32.4185 27.2921 32.5935 27.0279C32.7685 26.7637 32.8624 26.454 32.8636 26.1371V25.9697C32.8636 25.4473 33.0712 24.9463 33.4405 24.5769C33.8099 24.2075 34.3109 24 34.8333 24C35.3557 24 35.8567 24.2075 36.2261 24.5769C36.5955 24.9463 36.803 25.4473 36.803 25.9697V26.0583C36.8043 26.3752 36.8982 26.6849 37.0732 26.9491C37.2482 27.2133 37.4966 27.4206 37.7879 27.5455C38.0849 27.6766 38.4144 27.7157 38.7339 27.6577C39.0534 27.5998 39.3482 27.4475 39.5803 27.2205L39.6394 27.1614C39.8223 26.9782 40.0396 26.8329 40.2787 26.7338C40.5178 26.6347 40.7741 26.5837 41.033 26.5837C41.2918 26.5837 41.5481 26.6347 41.7872 26.7338C42.0264 26.8329 42.2436 26.9782 42.4265 27.1614C42.6097 27.3443 42.7549 27.5615 42.8541 27.8006C42.9532 28.0398 43.0042 28.2961 43.0042 28.5549C43.0042 28.8138 42.9532 29.0701 42.8541 29.3092C42.7549 29.5483 42.6097 29.7656 42.4265 29.9485L42.3674 30.0076C42.1404 30.2397 41.9881 30.5345 41.9301 30.854C41.8722 31.1734 41.9113 31.503 42.0424 31.8V31.8788C42.1673 32.1701 42.3746 32.4185 42.6388 32.5935C42.903 32.7685 43.2126 32.8624 43.5295 32.8636H43.697C44.2194 32.8636 44.7204 33.0712 45.0898 33.4405C45.4591 33.8099 45.6667 34.3109 45.6667 34.8333C45.6667 35.3557 45.4591 35.8567 45.0898 36.2261C44.7204 36.5955 44.2194 36.803 43.697 36.803H43.6083C43.2914 36.8043 42.9818 36.8982 42.7176 37.0732C42.4533 37.2482 42.2461 37.4966 42.1212 37.7879Z" stroke="white" stroke-width="2" stroke-linecap="round" stroke-linejoin="round"/>
<defs>
<filter id="filter0_b_16_6" x="-10" y="-10" width="90" height="90" filterUnits="userSpaceOnUse" color-interpolation-filters="sRGB">
<feFlood flood-opacity="0" result="BackgroundImageFix"/>
<feGaussianBlur in="BackgroundImageFix" stdDeviation="5"/>
<feComposite in2="SourceAlpha" operator="in" result="effect1_backgroundBlur_16_6"/>
<feBlend mode="normal" in="SourceGraphic" in2="effect1_backgroundBlur_16_6" result="shape"/>
</filter>
</defs>
</svg>
