<svg version="1.2" xmlns="http://www.w3.org/2000/svg" viewBox="0 0 1483 591" width="1483" height="591">
	<title>KPMG_logo-svg-svg</title>
	<style>
		.s0 { fill: #ffffff } 
	</style>
	<path id="path5037" fill-rule="evenodd" class="s0" d="m1482.8 0.1v460.8h-91.3l-27.9 111.2-9.5 2.2-9.4 1.8-9.4 1.9-9.4 1.7-9.4 1.5-9.4 1.6-9.4 1.4-9.3 1.2-9.3 1.1-9.2 0.9-18.5 1.6-9.2 0.5-9.2 0.4-9.1 0.2-9.1 0.1h-6.7l-7-0.3-7.2-0.3-7.4-0.6-7.5-0.9-7.5-1.1-7.7-1.3-7.5-1.7-3.8-0.9-3.7-1.1-3.8-1.1-3.7-1.2-3.8-1.4-3.6-1.4-3.6-1.6-3.4-1.5-3.6-1.9-3.5-1.7-3.2-2-3.3-2.2-3.3-2.1-3.1-2.4-6-4.9-2.3-2.2-2.4-2.3-4-4.8-2.1-2.4-1.9-2.6-1.8-2.5-1.8-2.6-1.5-2.8-1.6-2.7-1.4-2.8-1.4-2.9-1.3-2.8-1.2-2.9-1.1-3-1.1-3.1-0.9-3.1-1-3.1-0.8-3.1-0.7-3.3-0.7-3.2-0.6-3.3-0.5-3.2-0.4-3.3-0.7-6.8-0.3-6.8-0.1-7.2 0.3-7h-46.3l-26.2 122.6h-80.1l26.6-122.6h-51.3l-78.4 122.6h-68.2l-0.9-122.6h-36.7l-34.5 122.6h-81.4l35.7-122.6h-179.6v0.4h-17.9l-36.9 122.5h-80.6l37.4-122.9h-134.9l59.5 122.9h-89.2l-61.3-122.9h-10.7l-37 122.9h-73.9l84-277.5v-306.1h329.1v268.5h27.2v-268.5h329v268.1h27.3v-268.1h329v320.7l3.1-3.5 3.2-3.4 3.3-3.4 3.2-3.2 3.5-3.3 3.6-3.3 7.5-6.2v-294.4zm-1080.8 11.6h-305.4v256.9h73.5l-39.3 129.6 121.3-129.6h99.7l-155.1 157.2 11.1 23.6h144l1.7-5.2 43.8-144.2 4.7-15.7zm-285.1 437.7l-1.1-1.7-0.5 1.7zm373.5-43.5l3.3-0.3 3.1-0.5 3.2-0.4 5.6-1.3 2.7-0.6 2.5-0.9 2.3-0.8 2.2-0.9 2.2-1 2-1.1 2.1-1.2 1.8-1.1 1.8-1.4 1.7-1.2 1.5-1.4 1.6-1.6 1.4-1.5 2.8-3.4 1.3-1.9 1.1-1.9 1.1-1.8 2.2-4.2 2-4.5 1.9-4.8 1.7-5 1.7-5.9 1.4-5.2 1-5 0.1-2.2 0.2-2.2v-3.8l-0.2-1.7-0.3-1.7-0.5-1.6-0.6-1.4-0.6-1.2-0.8-1.3-1.2-1.5-1.6-1.3-1.7-1.2-1.9-0.9-2.2-1-2.5-0.7-2.7-0.8-2.8-0.5-3.1-0.5-3.5-0.4-3.6-0.3-3.7-0.2-8.5-0.3-9.2-0.1h-18.3l-3.3 0.1h-6.7l-10.3 38.6-4.3 16.5-9 33.2 19.5 0.1h2.5l2.7-0.1h8.6l2.3-0.2 2.2-0.1 2.4-0.2zm267.9-394.2h-305.4v256.5h88.7l7 0.1 6.9 0.5 6.7 0.5 6.8 0.9 3.3 0.5 6.2 1.2 3.1 0.8 6 1.8 2.8 1 2.8 1.2 2.7 1.2 2.6 1.4 2.5 1.6 2.6 1.7 2.3 1.7 2.2 1.9 2 2.1 2.1 2.2 2.5 3.1 2.2 3.3 1.8 3.5 1.8 3.6 1.5 3.7 1.1 3.9 1.1 4.2 0.6 4.2 0.7 4.5 0.1 4.8 0.2 4.8-0.2 5.3-0.5 5.3-0.6 5.5-0.9 5.9-1.1 6.2-0.8 3.9-0.8 4.1-1.1 3.7-0.9 3.7-1.3 3.7-1.2 3.6-1.4 3.4-3.2 6.8-1.7 3.3-1.7 3.1-1.9 3.1-2 3.1-2.1 2.8-2.1 2.9-2.4 2.7-2.3 2.8-2.5 2.4-2.5 2.7-2.7 2.3-2.8 2.5-2.8 2.2-3 2.1-3.1 2.2-3.2 2-3.3 1.9-3.2 2-3.5 1.7-3.6 1.7-3.6 1.6-7.5 3.1h81.1l52.5-181.2h76.4zm-15.5 437.7l-1.3-113.3-32 113.3zm371.7-437.7h-305.5v437.7h8.4l115.6-180.9 129.3 0.1-38.3 180.8h44.9l0.3-3.4 0.4-3.3 0.5-3.3 0.6-3.2 0.7-3.4 0.7-3.3 0.8-3.4 0.8-3.3 1.3-4.9 1.4-5 1.5-5.1 3.6-10.6 2.2-5.4 2.2-5.6 2.5-5.4 2.7-5.6 2.6-5.6 3.2-5.7 3.1-5.6 3.3-5.6 7.2-11.2 3.9-5.4 0.2-62.8c-0.1 0-0.1-261.6-0.1-261.6zm-147 329.1l-69.5 108.6h45.9zm323.2 182.6l15.6-62.6h-142.3l0.1 4.4 0.3 4.2 0.5 4 0.6 3.9 1 3.7 0.9 3.6 1.1 3.6 1.3 3.2 1.5 3.1 1.6 3 1.7 2.9 1.9 2.6 2 2.7 4.4 4.6 2.5 2.2 2.5 1.9 2.7 1.8 2.8 1.7 3 1.7 2.9 1.4 3.2 1.4 3.2 1.1 3.3 1.1 3.5 0.9 3.6 0.8 3.6 0.6 3.7 0.7 3.9 0.4 3.9 0.3 4.1 0.2h10.3l6.3-0.3 6.4-0.5 6.4-0.6 6.4-0.8 6.6-0.9 6.6-1zm180.6-511.6h-305.9v274.6l4.4-2.8 8.7-5 4.4-2.3 4.5-2.2 4.4-2 4.6-2 4.5-1.9 4.4-1.7 4.5-1.5 4.6-1.6 4.5-1.4 4.5-1.2 4.4-1.3 4.6-1 4.3-1 8.8-1.8 8.6-1.4 8.4-1.1 8.3-0.9 8-0.7 7.7-0.4 7.3-0.2 7.1-0.1 9.4 0.1 9.2 0.3 8.8 0.8 8.6 0.9 4.2 0.5 4.1 0.6 7.8 1.6 3.9 0.9 3.6 0.9 3.7 1 3.5 1.1 3.4 1.2 3.5 1.2 3.3 1.4 3.1 1.4 3.1 1.6 3 1.5 2.8 1.6 2.8 1.9 2.7 1.8 2.5 1.9 2.5 2 2.3 2.2 2.2 2.1 4.1 4.7 1.9 2.5 1.5 2.3 1.4 2.3 1.5 2.4 2.2 4.6 0.9 2.3 1.6 4.8 0.6 2.4 0.6 2.3 0.3 2.3 0.5 2.2 0.5 4.6 0.1 4.5v4.4l-0.6 8.4-0.7 3.8-1.2 7.3-1.4 6.4h-92l0.3-3.1v-5.7l-0.2-2.7-0.4-2.6-0.5-2.3-0.6-2.4-0.8-2.1-0.9-2.1-1-2-1.1-1.8-1.2-1.6-1.4-1.7-1.5-1.4-3.1-2.8-3.4-2.2-1.9-1-1.9-0.8-1.9-1-4-1.2-2.2-0.6-4.4-0.9-4.5-0.7-4.6-0.3-4.5-0.1-5.8 0.1-5.6 0.5-5.5 0.8-5.3 1.1-5.2 1.2-5 1.5-4.8 1.9-4.7 2.2-4.6 2.3-4.4 2.5-4.3 2.8-4.1 2.9-3.9 3.3-3.9 3.4-3.6 3.4-3.6 3.7-3.5 3.9-3.3 4-2.9 4.2-6 8.7-2.6 4.7-2.5 4.5-2.5 4.8-4.4 9.6-2.1 5-1.8 4.9-1.8 5-1.5 5.1-1.4 5.1-1.4 5.2-1 4.6-0.9 4.7-0.8 4.3-0.9 4.4v10.3h74.6l12.7-50.5h154.2l-12.6 50.5h76.9c0.1 0 0.1-437.6 0.1-437.6z"/>
</svg>